<svg id="89cf1bef-30d1-4445-a5a7-230a68efb275" data-name="Layer 1"
  xmlns="http://www.w3.org/2000/svg" width="25" height="25" viewBox="0 0 94 94">
  <title>SARTopo Logo</title>
  <path
    d="M92.43,40,92,37.71l-8.33-1.19A37.11,37.11,0,0,0,44.3,11.06L40,3.94l-2.31.48-1.14,8.33A37.3,37.3,0,0,0,11.23,51.89L4.1,56.19l.47,2.31,8.33,1.18A37.29,37.29,0,0,0,48.26,85.29,35.37,35.37,0,0,0,52,85.1l4.27,7.15,2.31-.46,1.2-8.33A37.28,37.28,0,0,0,85.48,48.07a36.19,36.19,0,0,0-.19-3.77ZM48.26,81a33,33,0,1,1,33-33A33,33,0,0,1,48.26,81Z"
    fill="#cc5e31" />
  <path
    d="M46.22,23.9C42.67,31.74,33.86,58.31,30.1,67.58a1,1,0,0,0,1.47,1.23L73.81,43.09a1,1,0,0,0-.4-1.76l-7.35-.88a29.12,29.12,0,0,1-7.73-9.65.94.94,0,0,0-1.09-.47l-3.58,1.08a23.36,23.36,0,0,1-5.73-7.56A1,1,0,0,0,46.22,23.9Z"
    fill="#cc5e31" />
</svg>